<?xml version="1.0" encoding="UTF-8"?>
<svg id="_图层_1" data-name="图层_1" xmlns="http://www.w3.org/2000/svg" version="1.1" viewBox="0 0 27.01 27.01">
  <!-- Generator: Adobe Illustrator 29.7.1, SVG Export Plug-In . SVG Version: 2.1.1 Build 8)  -->
  <defs>
    <style>
      .st0 {
        fill: #fff;
      }
    </style>
  </defs>
  <path class="st0" d="M27.01,0v27.01H0V0h27.01ZM12.52,2.44C4.37,3.03-.22,12.46,4.14,19.37c5.05,7.99,17.27,6.4,19.99-2.64,2.3-7.65-3.72-14.87-11.61-14.29Z"/>
  <path d="M12.52,2.44c7.88-.57,13.91,6.64,11.61,14.29-2.72,9.04-14.94,10.63-19.99,2.64C-.22,12.46,4.37,3.03,12.52,2.44ZM18.11,4.69c-3.26-1.63-7.17-1.43-10.18.64-4.12,2.84-5.49,8.31-3.15,12.77.08.16.6,1.05.69,1.1.22.11.65-.26.74-.19l.42,1.08-.32.16.79.74c6.65-2.18,11.59-8.45,12.2-15.44,0-.18-1.1-.8-1.14-.75l-.21,1.37-1.16-.21.21-1.37c.3.04.63.13.92.16.06,0,.2.04.18-.05ZM21.53,7.69c-.29-.36-.64-.9-1-1.18-.06-.04-.06-.12-.13-.03-.89,6.6-5.13,12.14-11.11,14.94-.29.14-.61.23-.89.37-.05.03-.1-.03-.07.11l.77.41.86-.3.3.79c7.21,2.47,14.32-3.59,13-11.12-.21-1.19-.7-2.49-1.4-3.46l-.16.95-1.16-.21.21-1.37.79.11Z"/>
  <path class="st0" d="M18.11,4.69c.01.09-.12.06-.18.05-.29-.02-.62-.12-.92-.16l-.21,1.37,1.16.21.21-1.37c.05-.05,1.14.57,1.14.75-.62,6.99-5.55,13.25-12.2,15.44l-.79-.74.32-.16-.42-1.08c-.09-.08-.51.3-.74.19-.09-.05-.61-.94-.69-1.1-2.34-4.46-.97-9.93,3.15-12.77,3.01-2.07,6.92-2.27,10.18-.64ZM17.69,7.21l-1.11-.3-.4,1.3,1.14.37.37-1.37ZM16.37,10.9l.52-1.23c-.02-.08-1.03-.55-1.1-.5l-.53,1.26,1.1.47ZM15.11,13.06l.68-1.18-1.05-.61c-.01.28-.67.98-.64,1.18l1,.61ZM13.5,13.21l-.87,1.08.92.76.86-1.08-.91-.76ZM11.98,15l-.98.97.77.81,1.02-.92-.82-.87ZM10.26,16.58l-1.15.82.71.97,1.08-.82-.63-.97ZM8.31,17.96l-1.2.58c-.07.09.44.97.55,1.1l1.19-.63-.53-1.05Z"/>
  <path class="st0" d="M21.53,7.69l-.79-.11-.21,1.37,1.16.21.16-.95c.71.97,1.2,2.28,1.4,3.46,1.31,7.53-5.8,13.6-13,11.12l-.3-.79-.86.3-.77-.41c-.03-.14.02-.08.07-.11.28-.14.6-.24.89-.37,5.98-2.81,10.22-8.35,11.11-14.94.07-.09.08-.02.13.03.36.28.71.82,1,1.18ZM21.42,10.22l-1.11-.3-.42,1.27,1.15.39.37-1.37ZM20.64,12.58l-1.1-.42-.53,1.26,1.07.42.56-1.26ZM17.85,15.47l.97.58.71-1.18-.97-.6c-.12.15-.78,1.1-.71,1.19ZM17.24,16.22l-.87,1.08.92.76.86-1.08-.91-.76ZM15.71,18.01l-.97.93.77.86c.14.02.87-.79,1.02-.92l-.82-.87ZM14,19.58l-1.16.82.71.97,1.07-.82-.63-.97ZM12.05,20.96c-.14-.08-.98.55-1.2.58-.07.1.47.95.55,1.1l1.18-.63-.53-1.04Z"/>
  <polygon points="13.5 13.21 14.41 13.98 13.56 15.05 12.64 14.29 13.5 13.21"/>
  <polygon points="17.69 7.21 17.32 8.58 16.18 8.22 16.58 6.92 17.69 7.21"/>
  <polygon points="11.98 15 12.79 15.87 11.77 16.79 11 15.98 11.98 15"/>
  <polygon points="10.26 16.58 10.89 17.55 9.82 18.37 9.11 17.4 10.26 16.58"/>
  <path d="M16.37,10.9l-1.1-.47.53-1.26c.06-.04,1.08.42,1.1.5l-.52,1.23Z"/>
  <path d="M15.11,13.06l-1-.61c-.03-.19.63-.9.64-1.18l1.05.61-.68,1.18Z"/>
  <path d="M8.31,17.96l.53,1.05-1.19.63c-.11-.13-.61-1-.55-1.1l1.2-.58Z"/>
  <polygon points="17.24 16.22 18.15 16.98 17.29 18.06 16.37 17.29 17.24 16.22"/>
  <path d="M15.71,18.01l.82.87c-.15.13-.88.94-1.02.92l-.77-.86.97-.93Z"/>
  <polygon points="21.42 10.22 21.06 11.58 19.9 11.19 20.32 9.92 21.42 10.22"/>
  <polygon points="14 19.58 14.63 20.55 13.56 21.37 12.85 20.4 14 19.58"/>
  <path d="M12.05,20.96l.53,1.04-1.18.63c-.08-.15-.62-1-.55-1.1.22-.03,1.06-.66,1.2-.58Z"/>
  <path d="M17.85,15.47c-.07-.1.58-1.05.71-1.19l.97.6-.71,1.18-.97-.58Z"/>
  <polygon points="20.64 12.58 20.08 13.84 19 13.42 19.54 12.17 20.64 12.58"/>
</svg>