<?xml version="1.0" encoding="UTF-8"?>
<svg id="_图层_1" data-name="图层_1" xmlns="http://www.w3.org/2000/svg" xmlns:xlink="http://www.w3.org/1999/xlink" version="1.1" viewBox="0 0 24 24">
  <!-- Generator: Adobe Illustrator 29.7.1, SVG Export Plug-In . SVG Version: 2.1.1 Build 8)  -->
  <defs>
    <style>
      .st0, .st1, .st2, .st3, .st4 {
        fill: none;
      }

      .st5 {
        fill: url(#grid);
      }

      .st1 {
        stroke-width: 2px;
      }

      .st1, .st2, .st3, .st4 {
        stroke: #000;
      }

      .st2 {
        stroke-width: 1.5px;
      }

      .st3 {
        opacity: .3;
        stroke-width: .3px;
      }

      .st3, .st6 {
        isolation: isolate;
      }

      .st6 {
        font-family: ArialMT, Arial;
        font-size: 6px;
      }
    </style>
    <pattern id="grid" x="0" y="0" width="4" height="4" patternTransform="translate(3 -15299) scale(1 -1)" patternUnits="userSpaceOnUse" viewBox="0 0 4 4">
      <g>
        <rect class="st0" width="4" height="4"/>
        <path class="st3" d="M4,4H0V0"/>
      </g>
    </pattern>
  </defs>
  <rect class="st5" x="2" y="4" width="20" height="16"/>
  <rect class="st4" x="2" y="4" width="20" height="16"/>
  <line class="st2" x1="4" y1="18" x2="4" y2="6"/>
  <line class="st2" x1="4" y1="18" x2="20" y2="18"/>
  <path class="st1" d="M4.45,17.17c2.59-1.53,5.18-3.06,7.78-4.58s5.18-3.06,7.78-4.58"/>
  <circle cx="4" cy="17.5" r="1.5"/>
  <circle cx="7.52" cy="15" r="1.5"/>
  <circle cx="12.22" cy="12.58" r="1.5"/>
  <circle cx="16" cy="10" r="1.5"/>
  <circle cx="20" cy="8" r="1.5"/>
  <text class="st6" transform="translate(5.5 9.5)"><tspan x="0" y="0">Z</tspan></text>
  <text class="st6" transform="translate(17.5 16.58)"><tspan x="0" y="0">P</tspan></text>
</svg>