<?xml version="1.0" standalone="no"?>
<!DOCTYPE svg PUBLIC "-//W3C//DTD SVG 20010904//EN"
 "http://www.w3.org/TR/2001/REC-SVG-20010904/DTD/svg10.dtd">
<svg version="1.0" xmlns="http://www.w3.org/2000/svg"
 width="512.000000pt" height="512.000000pt" viewBox="0 0 512.000000 512.000000"
 preserveAspectRatio="xMidYMid meet">

<g transform="translate(0.000000,512.000000) scale(0.100000,-0.100000)"
fill="#000000" stroke="none">
<path d="M2315 5109 c-884 -91 -1661 -631 -2049 -1423 -93 -188 -137 -308
-186 -500 -61 -240 -74 -355 -74 -626 0 -271 13 -386 74 -626 49 -192 93 -312
185 -500 248 -505 663 -920 1170 -1169 248 -122 496 -199 770 -241 168 -26
532 -26 700 0 66 10 122 20 124 22 2 2 -25 34 -60 71 -284 301 -426 677 -406
1073 19 365 162 686 422 945 560 561 1433 567 2018 16 37 -35 69 -62 71 -60 2
2 12 58 22 124 26 168 26 532 0 700 -111 730 -509 1361 -1116 1770 -322 216
-665 349 -1060 410 -126 19 -477 28 -605 14z"/>
<path d="M3890 2235 c-8 -2 -49 -9 -90 -15 -272 -45 -545 -218 -709 -450 -243
-345 -277 -778 -91 -1150 156 -310 442 -527 795 -602 77 -16 333 -16 410 0
463 99 797 433 897 897 16 77 16 332 0 410 -97 455 -430 795 -875 891 -66 14
-302 28 -337 19z m750 -1115 l0 -160 -640 0 -640 0 0 160 0 160 640 0 640 0 0
-160z"/>
</g>
</svg>
