<?xml version="1.0" encoding="UTF-8"?>
<svg id="_图层_1" data-name="图层_1" xmlns="http://www.w3.org/2000/svg" version="1.1" viewBox="0 0 27.01 27.01">
  <!-- Generator: Adobe Illustrator 29.7.1, SVG Export Plug-In . SVG Version: 2.1.1 Build 8)  -->
  <defs>
    <style>
      .st0 {
        display: none;
        fill: #fff;
      }

      .st0, .st1 {
        stroke: #000;
        stroke-miterlimit: 10;
        stroke-width: .75px;
      }
    </style>
  </defs>
  <path class="st0" d="M51.67-1.13v27.01h-27.01V-1.13h27.01ZM37.18,1.3c-8.15.59-12.74,10.03-8.38,16.93,5.05,7.99,17.27,6.4,19.99-2.64,2.3-7.65-3.72-14.87-11.61-14.29Z"/>
  <path class="st1" d="M11.52,2.89c7.88-.57,13.91,6.64,11.61,14.29-2.72,9.04-14.94,10.63-19.99,2.64C-1.23,12.91,3.37,3.48,11.52,2.89ZM17.11,5.14c-3.26-1.63-7.17-1.43-10.18.64-4.12,2.84-5.49,8.31-3.15,12.77.08.16.6,1.05.69,1.1.22.11.65-.26.74-.19l.42,1.08-.32.16.79.74c6.65-2.18,11.59-8.45,12.2-15.44,0-.18-1.1-.8-1.14-.75l-.21,1.37-1.16-.21.21-1.37c.3.04.63.13.92.16.06,0,.2.04.18-.05ZM20.53,8.14c-.29-.36-.64-.9-1-1.18-.06-.04-.06-.12-.13-.03-.89,6.6-5.13,12.14-11.11,14.94-.29.14-.61.23-.89.37-.05.03-.1-.03-.07.11l.77.41.86-.3.3.79c7.21,2.47,14.32-3.59,13-11.12-.21-1.19-.7-2.49-1.4-3.46l-.16.95-1.16-.21.21-1.37.79.11Z"/>
  <path class="st0" d="M42.77,3.55c.01.09-.12.06-.18.05-.29-.02-.62-.12-.92-.16l-.21,1.37,1.16.21.21-1.37c.05-.05,1.14.57,1.14.75-.62,6.99-5.55,13.25-12.2,15.44l-.79-.74.32-.16-.42-1.08c-.09-.08-.51.3-.74.19-.09-.05-.61-.94-.69-1.1-2.34-4.46-.97-9.93,3.15-12.77,3.01-2.07,6.92-2.27,10.18-.64ZM42.35,6.08l-1.11-.3-.4,1.3,1.14.37.37-1.37ZM41.04,9.76l.52-1.23c-.02-.08-1.03-.55-1.1-.5l-.53,1.26,1.1.47ZM39.77,11.92l.68-1.18-1.05-.61c-.01.28-.67.98-.64,1.18l1,.61ZM38.17,12.08l-.87,1.08.92.76.86-1.08-.91-.76ZM36.64,13.87l-.98.97.77.81,1.02-.92-.82-.87ZM34.93,15.45l-1.15.82.71.97,1.08-.82-.63-.97ZM32.98,16.82l-1.2.58c-.07.09.44.97.55,1.1l1.19-.63-.53-1.05Z"/>
  <path class="st0" d="M46.2,6.55l-.79-.11-.21,1.37,1.16.21.16-.95c.71.97,1.2,2.28,1.4,3.46,1.31,7.53-5.8,13.6-13,11.12l-.3-.79-.86.3-.77-.41c-.03-.14.02-.08.07-.11.28-.14.6-.24.89-.37,5.98-2.81,10.22-8.35,11.11-14.94.07-.09.08-.02.13.03.36.28.71.82,1,1.18ZM46.09,9.08l-1.11-.3-.42,1.27,1.15.39.37-1.37ZM45.3,11.45l-1.1-.42-.53,1.26,1.07.42.56-1.26ZM42.52,14.34l.97.58.71-1.18-.97-.6c-.12.15-.78,1.1-.71,1.19ZM41.91,15.08l-.87,1.08.92.76.86-1.08-.91-.76ZM40.38,16.87l-.97.93.77.86c.14.02.87-.79,1.02-.92l-.82-.87ZM38.67,18.45l-1.16.82.71.97,1.07-.82-.63-.97ZM36.71,19.83c-.14-.08-.98.55-1.2.58-.07.1.47.95.55,1.1l1.18-.63-.53-1.04Z"/>
  <polygon class="st1" points="12.5 13.67 13.41 14.43 12.56 15.51 11.64 14.75 12.5 13.67"/>
  <polygon class="st1" points="16.69 7.67 16.32 9.03 15.18 8.67 15.58 7.37 16.69 7.67"/>
  <polygon class="st1" points="10.98 15.46 11.79 16.32 10.77 17.24 10 16.43 10.98 15.46"/>
  <polygon class="st1" points="9.26 17.04 9.89 18 8.82 18.82 8.11 17.85 9.26 17.04"/>
  <path class="st1" d="M15.37,11.35l-1.1-.47.53-1.26c.06-.04,1.08.42,1.1.5l-.52,1.23Z"/>
  <path class="st1" d="M14.11,13.51l-1-.61c-.03-.19.63-.9.64-1.18l1.05.61-.68,1.18Z"/>
  <path class="st1" d="M7.31,18.41l.53,1.05-1.19.63c-.11-.13-.61-1-.55-1.1l1.2-.58Z"/>
  <polygon class="st1" points="16.24 16.67 17.15 17.43 16.29 18.51 15.37 17.75 16.24 16.67"/>
  <path class="st1" d="M14.71,18.46l.82.87c-.15.13-.88.94-1.02.92l-.77-.86.97-.93Z"/>
  <polygon class="st1" points="20.83 10.81 20.47 12.18 19.31 11.79 19.73 10.52 20.83 10.81"/>
  <polygon class="st1" points="13 20.04 13.63 21 12.56 21.82 11.85 20.85 13 20.04"/>
  <path class="st1" d="M11.05,21.41l.53,1.04-1.18.63c-.08-.15-.62-1-.55-1.1.22-.03,1.06-.66,1.2-.58Z"/>
  <path class="st1" d="M17.15,16.09c-.07-.1.58-1.05.71-1.19l.97.6-.71,1.18-.97-.58Z"/>
  <polygon class="st1" points="20.13 13.25 19.57 14.51 18.5 14.09 19.03 12.83 20.13 13.25"/>
  <path d="M4.02,13.92l4.86-5.13h-3.77l.37-1.71h6.43l-.36,1.63-4.62,4.92h4.08l-.61,1.71H3.72l.3-1.42Z"/>
</svg>